<?xml version="1.0" encoding="UTF-8" standalone="no"?>
<svg
   xmlns:dc="http://purl.org/dc/elements/1.1/"
   xmlns:cc="http://creativecommons.org/ns#"
   xmlns:rdf="http://www.w3.org/1999/02/22-rdf-syntax-ns#"
   xmlns:svg="http://www.w3.org/2000/svg"
   xmlns="http://www.w3.org/2000/svg"
   xmlns:sodipodi="http://sodipodi.sourceforge.net/DTD/sodipodi-0.dtd"
   xmlns:inkscape="http://www.inkscape.org/namespaces/inkscape"
   version="1.1"
   width="595.27557"
   height="841.88977"
   id="svg30"
   viewBox="0 0 595.27557 841.88977"
   sodipodi:docname="ZT_logo_krivky.cdr">
  <metadata
     id="metadata36">
    <rdf:RDF>
      <cc:Work
         rdf:about="">
        <dc:format>image/svg+xml</dc:format>
        <dc:type
           rdf:resource="http://purl.org/dc/dcmitype/StillImage" />
      </cc:Work>
    </rdf:RDF>
  </metadata>
  <defs
     id="defs34" />
  <sodipodi:namedview
     pagecolor="#ffffff"
     bordercolor="#666666"
     borderopacity="1"
     objecttolerance="10"
     gridtolerance="10"
     guidetolerance="10"
     inkscape:pageopacity="0"
     inkscape:pageshadow="2"
     inkscape:window-width="640"
     inkscape:window-height="480"
     id="namedview32" />
  <g
     id="Layer1000">
    <g
       id="Layer1001">
      <path
         d="m 229.3135,214.1039 h 23.9289 v 4.68 h -32.2653 l 24.5477,-40.3092 h -21.3865 v -4.68 h 29.734 z m 18.6862,-52.043 -9.3937,8.0439 -9.4952,-8.0439 3.5663,-2.7337 5.9289,5.0737 5.8949,-5.0737 z m 16.8415,28.6765 v 28.0465 h -4.8149 v -28.0465 z m -2.3737,-13.9726 c 1.8788,0 3.4313,1.5412 3.4313,3.42 0,1.9463 -1.5188,3.4651 -3.465,3.4651 -1.9463,0 -3.4314,-1.5525 -3.4314,-3.4988 0,-1.8788 1.5863,-3.3863 3.4651,-3.3863 z m 12.9149,13.9726 8.3815,18.8552 8.3364,-18.8552 h 5.3663 l -13.7364,29.8578 -13.7478,-29.8578 z m 48.0943,-13.9726 -9.1015,9.1914 -2.9925,-1.6765 7.1102,-9.765 z m 4.2863,29.0027 h -21.8591 c 0.2296,5.2461 3.4464,9.4952 8.8991,9.4952 4.3736,0 6.5191,-2.4233 8.64,-5.9063 l 4.0499,2.2726 c -2.8823,5.0366 -6.7851,7.9761 -12.8475,7.9761 -8.6426,0 -13.8152,-6.3618 -13.8152,-14.6701 0,-8.3027 4.8526,-14.8275 13.5788,-14.8275 6.5415,0 10.7461,3.6181 12.4665,8.8858 0.7543,2.3093 0.8875,4.3818 0.8875,6.7742 z m -5.0851,-4.0612 c -0.7753,-4.1743 -3.7715,-7.2451 -8.2012,-7.2451 -4.2973,0 -7.5571,3.085 -8.2689,7.2451 z"
         style="fill:#868789;fill-rule:evenodd"
         id="path2" />
      <path
         d="m 394.6113,205.7675 h -21.8591 c 0.2296,5.2461 3.4464,9.4952 8.8991,9.4952 4.3736,0 6.5191,-2.4233 8.64,-5.9063 l 4.0499,2.2726 c -2.8823,5.0366 -6.785,7.9761 -12.8475,7.9761 -8.6426,0 -13.8152,-6.3618 -13.8152,-14.6701 0,-8.3027 4.8526,-14.8275 13.5788,-14.8275 6.5415,0 10.7461,3.6181 12.4665,8.8858 0.7543,2.3093 0.8875,4.3818 0.8875,6.7742 z m -5.0851,-4.0612 c -0.7752,-4.1743 -3.7715,-7.2451 -8.2012,-7.2451 -4.2973,0 -7.5571,3.085 -8.2689,7.2451 z"
         style="fill:#868789;fill-rule:evenodd"
         id="path4" />
      <path
         d="m 519.9126,205.7675 h -21.8591 c 0.2296,5.2461 3.4463,9.4952 8.8991,9.4952 4.3735,0 6.5191,-2.4233 8.64,-5.9063 l 4.0498,2.2726 c -2.8822,5.0366 -6.785,7.9761 -12.8474,7.9761 -8.6426,0 -13.8153,-6.3618 -13.8153,-14.6701 0,-8.3027 4.8527,-14.8275 13.5789,-14.8275 6.5415,0 10.7461,3.6181 12.4664,8.8858 0.7543,2.3093 0.8876,4.3818 0.8876,6.7742 z m -5.0851,-4.0612 c -0.7753,-4.1743 -3.7715,-7.2451 -8.2012,-7.2451 -4.2973,0 -7.5572,3.085 -8.2689,7.2451 z"
         style="fill:#868789;fill-rule:evenodd"
         id="path6" />
      <path
         d="m 355.8759,178.4747 v 40.3092 h -5.0403 v -40.3092 h -10.8788 v -4.68 h 26.8653 v 4.68 z m 50.8952,56.0931 h -4.8149 v -43.8304 h 4.7812 v 3.9489 c 2.6662,-3.06 5.8952,-4.6125 9.6865,-4.6125 8.4495,0 13.5224,6.8516 13.5224,14.8612 0,7.965 -5.0871,14.6701 -13.3875,14.6701 -3.8588,0 -7.1214,-1.5749 -9.7877,-4.7475 z m 9.1015,-40.1403 c -5.9755,-0.0686 -9.4278,4.9192 -9.4278,10.5075 0,5.7109 3.3707,10.3277 9.394,10.3277 5.7053,0 9.1914,-4.7568 9.1914,-10.1588 0,-5.6324 -3.066,-10.6053 -9.1576,-10.6764 z m 26.2689,-24.8854 v 49.2418 h -4.8149 v -49.2418 z m 14.0063,21.1953 v 28.0465 h -4.8149 v -28.0465 z m -2.3738,-13.9726 c 1.8789,0 3.4314,1.5412 3.4314,3.42 0,1.9463 -1.5188,3.4651 -3.4651,3.4651 -1.9463,0 -3.4313,-1.5525 -3.4313,-3.4988 0,-1.8788 1.5862,-3.3863 3.465,-3.3863 z m 33.4239,16.009 v 6.3337 c -2.8012,-3.0937 -5.7373,-4.6463 -8.8313,-4.6463 -5.9131,0 -9.8887,4.6687 -9.8887,10.4176 0,5.7581 3.8934,10.3502 9.8212,10.3502 3.2627,0 6.2552,-1.6538 9.0564,-4.9164 v 6.3564 c -2.9925,1.9462 -5.9626,2.9361 -8.8988,2.9361 -8.3846,0 -14.8952,-6.2901 -14.8952,-14.6701 0,-6.0341 3.5133,-11.556 9.1395,-13.7951 4.6607,-1.855 10.1619,-1.1849 14.4969,1.6339 z"
         style="fill:#868789;fill-rule:evenodd"
         id="path8" />
    </g>
    <path
       d="m 79.5867,218.4338 h 58.3451 c 0.1396,-2.1354 0.1821,-4.1919 0.1619,-6.1559 -0.023,-2.2888 -0.1382,-4.5553 -0.282,-6.7056 -1.0943,0.1197 -2.1989,0.2009 -3.3082,0.2401 -13.69,0.4836 -25.6698,-5.6717 -28.0803,-20.515 -0.3093,-1.9092 -0.3907,-3.736 -0.4557,-5.6571 3.2132,-3.8086 6.3708,-6.7848 11.0627,-8.6278 7.9126,-3.107 16.886,-0.8714 22.3483,5.8112 1.6353,2.0007 2.9169,4.3094 3.9092,6.8131 0.9924,-2.5034 2.274,-4.8124 3.9093,-6.8131 5.4623,-6.6826 14.4357,-8.9182 22.3483,-5.8112 4.6929,1.8433 7.8486,4.8188 11.0626,8.6278 -0.0649,1.9211 -0.1463,3.7479 -0.4556,5.6571 -2.4105,14.8433 -14.3903,20.9986 -28.0803,20.515 -1.121,-0.0399 -2.237,-0.122 -3.3423,-0.244 -0.162,2.3437 -0.2742,4.8325 -0.2862,7.3475 -0.009,1.83 0.036,3.684 0.1544,5.5179 h 58.3516 c -42.4541,-99.717 -84.9086,-99.717 -127.3628,0 z"
       style="fill:#868789;fill-rule:evenodd"
       id="path11" />
    <path
       d="m 98.619,222.2762 h 42.4672 c 0.2602,-2.7685 0.3557,-6.1222 0.3433,-9.1065 -0.0181,-4.3746 -0.2697,-8.655 -0.576,-11.884 -3.842,0.5377 -7.1256,1.152 -12.512,0.3975 -9.7867,-1.3708 -18.0481,-7.2242 -18.5066,-20.4683 4.701,-5.4433 11.1545,-8.8066 18.4615,-7.0857 7.3952,1.7408 11.2645,7.5449 13.1571,14.5526 0.4466,1.4857 0.887,3.2008 1.3293,5.2167 h 0.971 c 0.4423,-2.0159 0.8827,-3.731 1.3292,-5.2167 1.8926,-7.0077 5.7619,-12.8118 13.1572,-14.5526 7.3069,-1.7209 13.7604,1.6424 18.4615,7.0857 -0.4171,12.0489 -7.2927,17.9805 -15.8991,19.9854 -4.8098,1.1203 -10.279,1.0138 -15.1192,0.0854 -0.4141,5.1355 -0.8795,13.4992 -0.196,20.9905 h 42.4298 c -29.766,18.8493 -59.5322,18.8493 -89.2982,0 z"
       style="fill:#96c018;fill-rule:evenodd"
       id="path13" />
  </g>
  <g
     id="Layer1002">
    <g
       id="Layer1003">
      <path
         d="m 229.3135,477.5477 h 23.9289 v 4.68 h -32.2653 l 24.5477,-40.3093 h -21.3865 v -4.68 h 29.734 z m 18.6862,-52.043 -9.3937,8.0439 -9.4952,-8.0439 3.5663,-2.7337 5.9289,5.0737 5.8949,-5.0737 z m 16.8415,28.6764 v 28.0466 h -4.8149 v -28.0466 z m -2.3737,-13.9725 c 1.8788,0 3.4313,1.5412 3.4313,3.42 0,1.9462 -1.5188,3.465 -3.465,3.465 -1.9463,0 -3.4314,-1.5525 -3.4314,-3.4988 0,-1.8788 1.5863,-3.3862 3.4651,-3.3862 z m 12.9149,13.9725 8.3815,18.8552 8.3364,-18.8552 h 5.3663 l -13.7364,29.8579 -13.7478,-29.8579 z m 48.0943,-13.9725 -9.1015,9.1913 -2.9925,-1.6764 7.1102,-9.7651 z m 4.2863,29.0026 h -21.8591 c 0.2296,5.2461 3.4464,9.4953 8.8991,9.4953 4.3736,0 6.5191,-2.4234 8.64,-5.9063 l 4.0499,2.2725 c -2.8823,5.0366 -6.7851,7.9762 -12.8475,7.9762 -8.6426,0 -13.8152,-6.3618 -13.8152,-14.6702 0,-8.3027 4.8526,-14.8275 13.5788,-14.8275 6.5415,0 10.7461,3.6182 12.4665,8.8858 0.7543,2.3094 0.8875,4.3818 0.8875,6.7742 z m -5.0851,-4.0612 c -0.7753,-4.1743 -3.7715,-7.245 -8.2012,-7.245 -4.2973,0 -7.5571,3.0849 -8.2689,7.245 z"
         style="fill:#868789;fill-rule:evenodd"
         id="path16" />
      <path
         d="m 394.6113,469.2112 h -21.8591 c 0.2296,5.2461 3.4464,9.4953 8.8991,9.4953 4.3736,0 6.5191,-2.4234 8.64,-5.9063 l 4.0499,2.2725 c -2.8823,5.0366 -6.785,7.9762 -12.8475,7.9762 -8.6426,0 -13.8152,-6.3618 -13.8152,-14.6702 0,-8.3027 4.8526,-14.8275 13.5788,-14.8275 6.5415,0 10.7461,3.6182 12.4665,8.8858 0.7543,2.3094 0.8875,4.3818 0.8875,6.7742 z m -5.0851,-4.0612 c -0.7752,-4.1743 -3.7715,-7.245 -8.2012,-7.245 -4.2973,0 -7.5571,3.0849 -8.2689,7.245 z"
         style="fill:#868789;fill-rule:evenodd"
         id="path18" />
      <path
         d="m 519.9126,469.2112 h -21.8591 c 0.2296,5.2461 3.4463,9.4953 8.8991,9.4953 4.3735,0 6.5191,-2.4234 8.64,-5.9063 l 4.0498,2.2725 c -2.8822,5.0366 -6.785,7.9762 -12.8474,7.9762 -8.6426,0 -13.8153,-6.3618 -13.8153,-14.6702 0,-8.3027 4.8527,-14.8275 13.5789,-14.8275 6.5415,0 10.7461,3.6182 12.4664,8.8858 0.7543,2.3094 0.8876,4.3818 0.8876,6.7742 z m -5.0851,-4.0612 c -0.7753,-4.1743 -3.7715,-7.245 -8.2012,-7.245 -4.2973,0 -7.5572,3.0849 -8.2689,7.245 z"
         style="fill:#868789;fill-rule:evenodd"
         id="path20" />
      <path
         d="m 355.8759,441.9184 v 40.3093 h -5.0403 v -40.3093 h -10.8788 v -4.68 h 26.8653 v 4.68 z m 50.8952,56.0931 h -4.8149 v -43.8304 h 4.7812 v 3.9489 c 2.6662,-3.06 5.8952,-4.6125 9.6865,-4.6125 8.4495,0 13.5224,6.8516 13.5224,14.8612 0,7.9651 -5.0871,14.6702 -13.3875,14.6702 -3.8588,0 -7.1214,-1.575 -9.7877,-4.7475 z m 9.1015,-40.1403 c -5.9755,-0.0686 -9.4278,4.9193 -9.4278,10.5075 0,5.711 3.3707,10.3278 9.394,10.3278 5.7053,0 9.1914,-4.7569 9.1914,-10.1588 0,-5.6325 -3.066,-10.6053 -9.1576,-10.6765 z m 26.2689,-24.8853 v 49.2418 h -4.8149 v -49.2418 z m 14.0063,21.1952 v 28.0466 h -4.8149 v -28.0466 z m -2.3738,-13.9725 c 1.8789,0 3.4314,1.5412 3.4314,3.42 0,1.9462 -1.5188,3.465 -3.4651,3.465 -1.9463,0 -3.4313,-1.5525 -3.4313,-3.4988 0,-1.8788 1.5862,-3.3862 3.465,-3.3862 z m 33.4239,16.0089 v 6.3337 c -2.8012,-3.0937 -5.7373,-4.6462 -8.8313,-4.6462 -5.9131,0 -9.8887,4.6686 -9.8887,10.4176 0,5.758 3.8934,10.3501 9.8212,10.3501 3.2627,0 6.2552,-1.6537 9.0564,-4.9164 v 6.3564 c -2.9925,1.9463 -5.9626,2.9362 -8.8988,2.9362 -8.3846,0 -14.8952,-6.2901 -14.8952,-14.6702 0,-6.0341 3.5133,-11.556 9.1395,-13.7951 4.6607,-1.855 10.1619,-1.1849 14.4969,1.6339 z"
         style="fill:#868789;fill-rule:evenodd"
         id="path22" />
    </g>
    <path
       d="m 79.5867,481.8776 h 58.3451 c 0.1396,-2.1354 0.1821,-4.1919 0.1619,-6.1559 -0.023,-2.2889 -0.1382,-4.5554 -0.282,-6.7057 -1.0943,0.1198 -2.1989,0.2009 -3.3082,0.2402 -13.69,0.4835 -25.6698,-5.6717 -28.0803,-20.5151 -0.3093,-1.9092 -0.3907,-3.7359 -0.4557,-5.6571 3.2132,-3.8086 6.3708,-6.7848 11.0627,-8.6278 7.9126,-3.107 16.886,-0.8713 22.3483,5.8113 1.6353,2.0007 2.9169,4.3093 3.9092,6.813 0.9924,-2.5034 2.274,-4.8123 3.9093,-6.813 5.4623,-6.6826 14.4357,-8.9183 22.3483,-5.8113 4.6929,1.8433 7.8486,4.8189 11.0626,8.6278 -0.0649,1.9212 -0.1463,3.7479 -0.4556,5.6571 -2.4105,14.8434 -14.3903,20.9986 -28.0803,20.5151 -1.121,-0.0399 -2.237,-0.122 -3.3423,-0.2441 -0.162,2.3437 -0.2742,4.8325 -0.2862,7.3476 -0.009,1.83 0.036,3.684 0.1544,5.5179 h 58.3516 c -42.4541,-99.717 -84.9086,-99.717 -127.3628,0 z"
       style="fill:#868789;fill-rule:evenodd"
       id="path25" />
    <path
       d="m 98.619,485.7199 h 42.4672 c 0.2602,-2.7685 0.3557,-6.1221 0.3433,-9.1064 -0.0181,-4.3746 -0.2697,-8.6551 -0.576,-11.8841 -3.842,0.5377 -7.1256,1.1521 -12.512,0.3975 -9.7867,-1.3707 -18.0481,-7.2242 -18.5066,-20.4683 4.701,-5.4432 11.1545,-8.8066 18.4615,-7.0856 7.3952,1.7407 11.2645,7.5448 13.1571,14.5526 0.4466,1.4856 0.887,3.2007 1.3293,5.2167 h 0.971 c 0.4423,-2.016 0.8827,-3.7311 1.3292,-5.2167 1.8926,-7.0078 5.7619,-12.8119 13.1572,-14.5526 7.3069,-1.721 13.7604,1.6424 18.4615,7.0856 -0.4171,12.0489 -7.2927,17.9805 -15.8991,19.9855 -4.8098,1.1202 -10.279,1.0138 -15.1192,0.0853 -0.4141,5.1356 -0.8795,13.4992 -0.196,20.9905 h 42.4298 c -29.766,18.8493 -59.5322,18.8493 -89.2982,0 z"
       style="fill:#1b1918;fill-rule:evenodd"
       id="path27" />
  </g>
</svg>
